<!DOCTYPE svg PUBLIC "-//W3C//DTD SVG 1.1//EN" "http://www.w3.org/Graphics/SVG/1.1/DTD/svg11.dtd">
<!-- Uploaded to: SVG Repo, www.svgrepo.com, Transformed by: SVG Repo Mixer Tools -->
<svg fill="#ed9702" height="129px" width="129px" version="1.1" id="Layer_1" xmlns="http://www.w3.org/2000/svg" xmlns:xlink="http://www.w3.org/1999/xlink" viewBox="-66.56 -66.56 645.12 645.12" xml:space="preserve" stroke="#ed9702">
<g id="SVGRepo_bgCarrier" stroke-width="0"/>
<g id="SVGRepo_tracerCarrier" stroke-linecap="round" stroke-linejoin="round"/>
<g id="SVGRepo_iconCarrier"> <g> <g> <circle cx="62.027" cy="168.687" r="33.328"/> </g> </g> <g> <g> <path d="M187.248,285.024v41.799h27.582c8.154,0,14.765-6.611,14.765-14.764v-27.035H187.248z"/> </g> </g> <g> <g> <path d="M162.043,285.021l-30.256,12.557v14.479c0,8.154,6.611,14.764,14.765,14.764h27.582v-41.8H162.043z"/> </g> </g> <g> <g> <path d="M214.83,229.015h-27.582v5.582c7.684,12.153,5.99,27.203-2.621,37.311c26.134,0,18.596,0,44.968,0V243.78 C229.595,235.626,222.985,229.015,214.83,229.015z"/> </g> </g> <g> <g> <path d="M175.783,246.086c-3.188-8.938-13.082-12.875-21.302-9.462l-51.378,21.322l-50.791-34.073l52.188,18.256l-0.058-7.614 c0-12.434-10.08-22.515-22.515-22.515h-40.15c-12.434,0-22.515,10.08-22.515,22.515c0,0,0.008,256.395,0.008,258.183 c0,10.657,8.64,19.298,19.298,19.298c10.658,0,19.298-8.64,19.298-19.298c0-1.79,0.006-141.139-0.011-142.668h6.522l20.037,54.63 l-17.798,84.04c-2.208,10.426,4.454,20.668,14.881,22.877c10.427,2.208,20.669-4.456,22.877-14.881l18.948-89.471 c0.751-3.549,0.487-7.237-0.762-10.643l-18.117-49.396v-12.918l34.562,13.173c7.512,2.863,15.856-0.475,19.413-7.505h-11.865 c-15.372,0-27.878-12.506-27.878-27.878c0-3.181,0-5.726,0-9.036c-5.697,2.364-8.766,3.904-14.232,4.447 c-7.049,0.7-14.374-0.947-20.697-5.188c-2.12-1.423,1.254,1.948-47.488-50.448l56.087,37.626 c4.536,3.042,10.29,3.503,15.124,1.498l59.341-24.627C174.664,263.069,178.686,254.217,175.783,246.086z"/> </g> </g> <g> <g> <path d="M434.256,244.131c-1.569-6.606-7.08-11.606-13.939-12.431c-6.339-0.759-8.645,1.317-60.265,22.741l-51.492-34.543 l52.796,18.395l0.054-7.607c0-12.605-10.219-22.826-22.826-22.826h-40.704c-12.605,0-22.826,10.219-22.826,22.826l0.008,261.745 c0,10.805,8.759,19.564,19.564,19.564s19.564-8.759,19.564-19.564c0-1.824,0.006-143.065-0.011-144.637h6.612l20.314,55.385 l-18.042,85.199c-2.239,10.57,4.515,20.953,15.086,23.192c10.551,2.238,20.951-4.501,23.192-15.086l19.208-90.705 c0.762-3.598,0.495-7.337-0.771-10.789l-18.368-50.077v-40.267c-9.986,0.992-19.553-3.112-23.724-7.598l-45.401-48.805 l56.86,38.145c4.604,3.087,10.447,3.547,15.332,1.519l60.16-24.967C432.121,259.834,436.076,251.786,434.256,244.131z"/> </g> </g> <g> <g> <circle cx="318.406" cy="163.959" r="33.791"/> </g> </g> <g> <g> <path d="M420.12,0c-20.297,0-36.751,20.028-36.751,44.733c0,17.96,8.699,33.438,21.245,40.556 c-0.58-3.622-0.883-7.327-0.883-11.081c0-15.529,5.075-30.258,14.289-41.473c7.826-9.526,18.234-15.793,29.409-17.935 C440.701,5.715,430.96,0,420.12,0z"/> </g> </g> <g> <g> <path d="M455.985,29.475c-20.297,0-36.751,20.028-36.751,44.733c0,18.611,9.34,34.564,22.624,41.303 c-2.295,10.972-17.242,82.446-19.531,93.391c-0.616-30.19-0.278-61.8,0.316-88.272c-4.162-3.956-7.724-8.529-10.729-13.952 c-0.714,26.198-1.272,59.629-0.829,92.292c-10.146-32.112-23.295-65.311-29.887-81.44c8.214-2.573,15.315-8.517,20.252-16.546 c-7.263-3.189-13.895-8.207-19.297-14.781c-9.214-11.215-14.289-25.944-14.289-41.473c0-5.172,0.576-10.25,1.667-15.145 c-19.141,1.553-34.274,20.93-34.274,44.62c0,23.785,15.252,43.224,34.5,44.642c6.946,16.929,24.981,62.085,35.676,99.811 l0.704-0.292c3.991-1.657,8.206-2.445,12.242-2.445h0.001c4.507,0,8.976,0.943,13.188,2.847 c2.517-12.035,18.389-87.905,20.926-100.035c21.768,2.497,40.241-18.342,40.241-44.526 C492.736,49.503,476.282,29.475,455.985,29.475z"/> </g> </g> <g> <g> <path d="M451.91,311.512c-0.861-0.408-17.564-8.647-24.36-32.837c-8.058,3.344-13.176,5.468-21.238,8.814 c-1.764,12.775-2.725,26.646-0.99,37.317c0.493,3.031,3.351,5.068,6.354,4.576c3.018-0.491,5.067-3.336,4.576-6.354 c-0.737-4.534-0.908-9.823-0.704-15.412c0.193,0.514,0.387,1.028,0.6,1.522c1.215,2.805,4.473,4.096,7.281,2.878 c2.806-1.216,4.094-4.476,2.878-7.281c-0.611-1.41-1.102-3.013-1.507-4.755c9.466,15.381,21.633,21.199,22.444,21.574 c2.767,1.275,6.028,0.07,7.319-2.688C455.855,316.109,454.661,312.819,451.91,311.512z"/> </g> </g> </g>
</svg>